<svg viewBox="0 0 100 100" xmlns="http://www.w3.org/2000/svg">
  <defs>
    <linearGradient id="grad1" x1="0%" y1="0%" x2="100%" y2="100%">
      <stop offset="0%" stop-color="#00E5FF" />
      <stop offset="50%" stop-color="#2196F3" />
      <stop offset="100%" stop-color="#9C27B0" />
    </linearGradient>
    <linearGradient id="grad2" x1="100%" y1="0%" x2="0%" y2="100%">
      <stop offset="0%" stop-color="#E040FB" />
      <stop offset="50%" stop-color="#9C27B0" />
      <stop offset="100%" stop-color="#2196F3" />
    </linearGradient>
    <linearGradient id="grad3" x1="0%" y1="100%" x2="100%" y2="0%">
      <stop offset="0%" stop-color="#00E5FF" />
      <stop offset="50%" stop-color="#5EFEEC" />
      <stop offset="100%" stop-color="#2196F3" />
    </linearGradient>
    <linearGradient id="grad4" x1="50%" y1="0%" x2="50%" y2="100%">
      <stop offset="0%" stop-color="#BA68C8" />
      <stop offset="100%" stop-color="#E040FB" />
    </linearGradient>
  </defs>

  <!-- Outer hexagon shape - left panel -->
  <path d="M15 35 L50 15 L50 50 L15 35 Z" fill="url(#grad1)" opacity="0.9"/>
  <!-- Top right panel -->
  <path d="M50 15 L85 35 L50 50 L50 15 Z" fill="url(#grad4)" opacity="0.9"/>
  <!-- Bottom right panel -->
  <path d="M85 35 L85 65 L50 85 L50 50 L85 35 Z" fill="url(#grad2)" opacity="0.9"/>
  <!-- Bottom left panel -->
  <path d="M15 65 L50 85 L50 50 L15 35 L15 65 Z" fill="url(#grad3)" opacity="0.9"/>
  
  <!-- Inner hexagon cutout -->
  <path d="M35 42 L50 33 L65 42 L65 58 L50 67 L35 58 Z" fill="#0A0E17"/>
</svg>
